<?xml version="1.0" encoding="utf-8"?>
<!-- Generator: Adobe Illustrator 26.3.1, SVG Export Plug-In . SVG Version: 6.00 Build 0)  -->
<svg version="1.1" id="Layer_1" xmlns="http://www.w3.org/2000/svg" xmlns:xlink="http://www.w3.org/1999/xlink" x="0px" y="0px"
	 viewBox="0 0 597 102.2" style="enable-background:new 0 0 597 102.2;" xml:space="preserve">
<style type="text/css">
	.st0{fill:#D95988;}
	.st1{fill:#FFFFFF;}
</style>
<g>
	<path class="st0" d="M469.5,65.4c3.2-3.5,6.1-6.8,9.2-10c0.9-0.9,1-1.4,0.1-2.2c-5.6-5.7-11.2-11.5-16.8-17.2
		c-0.4-0.4-1.2-0.6-1.9-0.6c-6.6-0.1-13.2-0.1-19.9,0c-0.7,0-1.7,0.4-2.2,0.9c-4.6,4.5-9.2,9.1-13.8,13.7c-0.3,0.3-0.5,0.6-1,1.2
		c1,0,1.5,0,2.1,0c9.3,0,18.6-0.1,27.9,0c0.8,0,1.7,0.4,2.3,0.9c2.1,1.9,4,3.9,6,5.8C464.3,60.4,466.9,62.9,469.5,65.4L469.5,65.4z
		 M425,74.5c0.3,0.4,0.4,0.6,0.5,0.7c4.3,4.5,8.6,8.9,13,13.4c0.4,0.4,1.1,0.6,1.7,0.6c6.6,0.1,13.2,0.1,19.9,0c0.8,0,1.8-0.4,2.3-1
		c4.7-4.6,9.3-9.2,13.9-13.8c0.2-0.2,0.4-0.5,0.7-1c-0.7,0-1.2-0.1-1.7-0.1c-9.2,0-18.3,0-27.5,0.1c-1.5,0-2.6-0.4-3.7-1.5
		c-2.4-2.4-4.9-4.7-7.3-7.1c-1-1-1.7-0.9-2.6,0c-1,1-2,1.9-3,2.9C429.2,70.1,427.1,72.3,425,74.5L425,74.5z"/>
	<path class="st0" d="M469.5,65.4c-2.6-2.5-5.2-5-7.8-7.5c-2-1.9-3.9-4-6-5.8c-0.6-0.5-1.5-0.9-2.3-0.9c-9.3,0-18.6,0-27.9,0
		c-0.6,0-1.2,0-2.1,0c0.5-0.6,0.7-0.9,1-1.2c4.6-4.6,9.1-9.2,13.8-13.7c0.5-0.5,1.5-0.9,2.2-0.9c6.6-0.1,13.2,0,19.9,0
		c0.6,0,1.4,0.2,1.9,0.6c5.6,5.7,11.2,11.5,16.8,17.2c0.9,0.9,0.8,1.3-0.1,2.2C475.6,58.5,472.7,61.9,469.5,65.4L469.5,65.4z"/>
	<path class="st0" d="M425,74.5c2.1-2.2,4.2-4.4,6.4-6.6c1-1,2-1.9,3-2.9c0.9-0.9,1.6-1.1,2.6,0c2.4,2.4,4.9,4.6,7.3,7.1
		c1.1,1.1,2.2,1.5,3.7,1.5c9.2-0.1,18.3-0.1,27.5-0.1c0.5,0,1,0,1.7,0.1c-0.3,0.5-0.5,0.7-0.7,1c-4.6,4.6-9.2,9.3-13.9,13.8
		c-0.6,0.5-1.5,1-2.3,1c-6.6,0.1-13.2,0-19.9,0c-0.6,0-1.3-0.2-1.7-0.6c-4.4-4.4-8.7-8.9-13-13.4C425.3,75.1,425.2,74.9,425,74.5
		L425,74.5z"/>
</g>
<g>
	<path class="st1" d="M66.7,88.5V35.3h17.1c4.7,0,8.9,1.1,12.7,3.2c3.8,2.1,6.7,5.1,8.8,9s3.2,8.2,3.2,13.1V63c0,4.9-1,9.2-3.1,13.1
		c-2.1,3.9-5,6.9-8.7,9.1c-3.7,2.2-7.9,3.3-12.5,3.3L66.7,88.5L66.7,88.5z M79.5,45.2v33.5H84c3.7,0,6.5-1.3,8.5-3.9
		c2-2.6,3-6.5,3-11.7v-2.3c0-5.1-1-9-3-11.6c-2-2.6-4.9-3.9-8.6-3.9L79.5,45.2L79.5,45.2z"/>
	<path class="st1" d="M133.7,89.2c-6.1,0-11-1.8-14.7-5.4s-5.6-8.3-5.6-14.1v-1c0-4,0.7-7.6,2.2-10.7c1.5-3.1,3.7-5.5,6.6-7.2
		c2.9-1.7,6.3-2.5,10.2-2.5c5.6,0,9.9,1.7,13.2,5.2c3.2,3.5,4.8,8.3,4.8,14.4v4.8h-24.5c0.4,2.2,1.4,4,2.9,5.2
		c1.5,1.3,3.4,1.9,5.8,1.9c3.9,0,6.9-1.4,9.1-4.1l5.6,6.7c-1.5,2.1-3.7,3.8-6.5,5.1C140,88.6,136.9,89.2,133.7,89.2L133.7,89.2z
		 M132.3,57.7c-3.6,0-5.8,2.4-6.4,7.2h12.4v-1c0.1-2-0.5-3.5-1.5-4.6C135.8,58.2,134.2,57.7,132.3,57.7L132.3,57.7z"/>
	<path class="st1" d="M170.6,73.8l6.3-24.9h13L177,88.5h-12.6l-12.9-39.6h13L170.6,73.8L170.6,73.8z"/>
	<path class="st1" d="M206.9,70.4v18.1h-12.8V35.3h21.2c4.1,0,7.7,0.7,10.8,2.2c3.1,1.5,5.6,3.6,7.3,6.4c1.7,2.8,2.6,5.9,2.6,9.4
		c0,5.2-1.9,9.3-5.6,12.5c-3.7,3.1-8.8,4.7-15.3,4.7L206.9,70.4L206.9,70.4z M206.9,60.5h8.4c2.5,0,4.4-0.6,5.7-1.9
		c1.3-1.2,2-3,2-5.3c0-2.5-0.7-4.5-2-6c-1.3-1.5-3.2-2.2-5.5-2.3h-8.6L206.9,60.5L206.9,60.5z"/>
	<path class="st1" d="M240.3,68.3c0-3.9,0.8-7.5,2.3-10.6c1.5-3.1,3.7-5.5,6.6-7.1c2.9-1.7,6.3-2.5,10.1-2.5c5.9,0,10.6,1.8,14,5.5
		c3.4,3.7,5.1,8.7,5.1,15v0.4c0,6.2-1.7,11.1-5.1,14.7c-3.4,3.6-8.1,5.4-13.9,5.4c-5.8,0-10.2-1.7-13.6-5.1c-3.4-3.4-5.3-8-5.5-13.7
		L240.3,68.3L240.3,68.3z M252.6,69.1c0,3.7,0.6,6.3,1.7,8c1.1,1.7,2.8,2.6,5.1,2.6c4.4,0,6.6-3.4,6.7-10.1v-1.2
		c0-7.1-2.3-10.6-6.8-10.6c-4.1,0-6.4,3.1-6.7,9.2L252.6,69.1L252.6,69.1z"/>
	<path class="st1" d="M307.8,60.1l-4.1-0.3c-3.9,0-6.4,1.2-7.5,3.7v25h-12.3V48.9h11.6l0.4,5.1c2.1-3.9,5-5.8,8.7-5.8
		c1.3,0,2.5,0.1,3.4,0.4L307.8,60.1L307.8,60.1z"/>
	<path class="st1" d="M328.4,39.1v9.8h6.5v8.6h-6.5v18.1c0,1.5,0.3,2.5,0.8,3.1c0.5,0.6,1.6,0.9,3.2,0.9c1.2,0,2.2-0.1,3.1-0.2v8.8
		c-2.2,0.7-4.5,1.1-6.9,1.1c-4.2,0-7.4-1-9.4-3c-2-2-3-5-3-9.1V57.5h-5v-8.6h5v-9.8L328.4,39.1L328.4,39.1z"/>
	<path class="st1" d="M362.1,88.5c-0.4-0.8-0.8-2-1.2-3.5c-2.3,2.9-5.4,4.3-9.5,4.3c-3.7,0-6.9-1.1-9.5-3.4
		c-2.6-2.3-3.9-5.1-3.9-8.5c0-4.3,1.6-7.5,4.8-9.7c3.2-2.2,7.8-3.3,13.8-3.3h3.8v-2.1c0-3.6-1.6-5.5-4.7-5.5c-2.9,0-4.4,1.4-4.4,4.3
		h-12.3c0-3.8,1.6-6.9,4.9-9.3c3.3-2.4,7.4-3.6,12.5-3.6c5.1,0,9,1.2,12,3.7c2.9,2.5,4.4,5.8,4.5,10.1v17.5c0.1,3.6,0.6,6.4,1.7,8.3
		v0.6L362.1,88.5L362.1,88.5z M354.3,80.5c1.5,0,2.8-0.3,3.8-1c1-0.7,1.7-1.4,2.2-2.2v-6.3h-3.6c-4.3,0-6.4,1.9-6.4,5.8
		c0,1.1,0.4,2,1.1,2.7C352.2,80.1,353.2,80.4,354.3,80.5L354.3,80.5z"/>
	<path class="st1" d="M392.5,88.5h-12.4V32.3h12.4V88.5z"/>
</g>
</svg>
