<?xml version="1.0" encoding="utf-8"?>
<!-- Generator: Adobe Illustrator 26.3.1, SVG Export Plug-In . SVG Version: 6.00 Build 0)  -->
<svg version="1.1" id="Layer_1" xmlns="http://www.w3.org/2000/svg" xmlns:xlink="http://www.w3.org/1999/xlink" x="0px" y="0px"
	 viewBox="0 0 162 42" style="enable-background:new 0 0 162 42;" xml:space="preserve">
<style type="text/css">
	.st0{fill:#E94C88;}
	.st1{fill:#FFFFFF;}
</style>
<g>
	<g>
		<path class="st0" d="M153.9,21c1.3-1.4,2.4-2.7,3.6-3.9c0.3-0.4,0.4-0.5,0.1-0.9c-2.2-2.2-4.4-4.5-6.6-6.7
			c-0.2-0.2-0.5-0.2-0.7-0.2c-2.6,0-5.2,0-7.8,0c-0.3,0-0.6,0.2-0.9,0.4c-1.8,1.8-3.6,3.6-5.4,5.4c-0.1,0.1-0.2,0.2-0.4,0.5
			c0.4,0,0.6,0,0.8,0c3.6,0,7.3,0,10.9,0c0.3,0,0.7,0.2,0.9,0.4c0.8,0.7,1.6,1.5,2.3,2.3C151.9,19,152.9,20,153.9,21z M136.5,24.6
			c0.1,0.2,0.1,0.2,0.2,0.3c1.7,1.7,3.4,3.5,5.1,5.2c0.2,0.2,0.4,0.2,0.7,0.2c2.6,0,5.2,0,7.8,0c0.3,0,0.7-0.2,0.9-0.4
			c1.8-1.8,3.6-3.6,5.4-5.4c0.1-0.1,0.2-0.2,0.3-0.4c-0.3,0-0.5,0-0.7,0c-3.6,0-7.2,0-10.8,0c-0.6,0-1-0.1-1.4-0.6
			c-0.9-0.9-1.9-1.8-2.8-2.8c-0.4-0.4-0.7-0.3-1,0c-0.4,0.4-0.8,0.8-1.2,1.1C138.2,22.8,137.3,23.7,136.5,24.6z"/>
		<path class="st0" d="M153.9,21c-1-1-2-1.9-3.1-2.9c-0.8-0.8-1.5-1.6-2.3-2.3c-0.2-0.2-0.6-0.4-0.9-0.4c-3.6,0-7.3,0-10.9,0
			c-0.2,0-0.5,0-0.8,0c0.2-0.2,0.3-0.4,0.4-0.5c1.8-1.8,3.6-3.6,5.4-5.4c0.2-0.2,0.6-0.4,0.9-0.4c2.6,0,5.2,0,7.8,0
			c0.2,0,0.6,0.1,0.7,0.2c2.2,2.2,4.4,4.5,6.6,6.7c0.3,0.3,0.3,0.5-0.1,0.9C156.3,18.3,155.2,19.6,153.9,21z"/>
		<path class="st0" d="M136.5,24.6c0.8-0.9,1.7-1.7,2.5-2.6c0.4-0.4,0.8-0.8,1.2-1.1c0.3-0.4,0.6-0.4,1,0c0.9,0.9,1.9,1.8,2.8,2.8
			c0.4,0.4,0.8,0.6,1.4,0.6c3.6,0,7.2,0,10.8,0c0.2,0,0.4,0,0.7,0c-0.1,0.2-0.2,0.3-0.3,0.4c-1.8,1.8-3.6,3.6-5.4,5.4
			c-0.2,0.2-0.6,0.4-0.9,0.4c-2.6,0-5.2,0-7.8,0c-0.2,0-0.5-0.1-0.7-0.2c-1.7-1.7-3.4-3.5-5.1-5.2C136.7,24.8,136.6,24.7,136.5,24.6
			z"/>
	</g>
	<g>
		<path class="st1" d="M4.1,30V10.3h5.8c1.7,0,3.3,0.4,4.6,1.2c1.4,0.8,2.4,1.9,3.1,3.3c0.7,1.4,1.1,3.1,1.1,4.9v1
			c0,1.9-0.4,3.5-1.1,4.9c-0.7,1.4-1.8,2.5-3.2,3.3c-1.4,0.8-3,1.2-4.7,1.2H4.1z M7.5,13v14.2h2.2c1.8,0,3.2-0.6,4.1-1.7
			c1-1.1,1.5-2.7,1.5-4.9v-1.1c0-2.1-0.5-3.8-1.4-4.9C13,13.6,11.7,13,9.9,13H7.5z"/>
		<path class="st1" d="M28.4,30.3c-2.1,0-3.8-0.7-5.1-2c-1.3-1.3-1.9-3.1-1.9-5.3v-0.4c0-1.5,0.3-2.8,0.8-3.9s1.4-2.1,2.4-2.7
			c1-0.6,2.2-1,3.4-1c2,0,3.5,0.6,4.6,1.9c1.1,1.3,1.6,3.1,1.6,5.4v1.3h-9.6c0.1,1.2,0.5,2.2,1.2,2.9c0.7,0.7,1.6,1.1,2.7,1.1
			c1.5,0,2.7-0.6,3.7-1.8l1.8,1.7c-0.6,0.9-1.4,1.6-2.4,2C30.7,30.1,29.6,30.3,28.4,30.3z M28,17.7c-0.9,0-1.6,0.3-2.2,1
			s-0.9,1.5-1.1,2.6H31v-0.2c-0.1-1.1-0.4-1.9-0.9-2.5C29.6,18,28.9,17.7,28,17.7z"/>
		<path class="st1" d="M41.8,25.8l3.1-10.5h3.4L43.2,30h-2.9l-5.1-14.7h3.4L41.8,25.8z"/>
		<path class="st1" d="M54.1,22.7V30h-3.4V10.3h7.6c2.2,0,4,0.6,5.3,1.7s1.9,2.7,1.9,4.6c0,1.9-0.6,3.4-1.9,4.5
			c-1.3,1.1-3.1,1.6-5.3,1.6H54.1z M54.1,19.9h4.1c1.2,0,2.2-0.3,2.8-0.9c0.6-0.6,1-1.4,1-2.5c0-1.1-0.3-1.9-1-2.6s-1.5-1-2.7-1
			h-4.2V19.9z"/>
		<path class="st1" d="M67.4,22.6c0-1.4,0.3-2.7,0.9-3.9s1.4-2,2.4-2.7c1-0.6,2.2-0.9,3.6-0.9c2,0,3.6,0.6,4.8,1.9
			c1.2,1.3,1.9,3,2,5.1l0,0.8c0,1.4-0.3,2.7-0.8,3.9s-1.4,2-2.4,2.6s-2.2,0.9-3.6,0.9c-2.1,0-3.7-0.7-5-2.1
			c-1.2-1.4-1.9-3.2-1.9-5.5V22.6z M70.6,22.8c0,1.5,0.3,2.7,0.9,3.5c0.6,0.9,1.5,1.3,2.6,1.3c1.1,0,2-0.4,2.6-1.3
			c0.6-0.9,0.9-2.1,0.9-3.8c0-1.5-0.3-2.7-1-3.5c-0.6-0.9-1.5-1.3-2.6-1.3c-1.1,0-1.9,0.4-2.6,1.3C71,19.9,70.6,21.1,70.6,22.8z"/>
		<path class="st1" d="M91.5,18.4c-0.4-0.1-0.9-0.1-1.3-0.1c-1.5,0-2.5,0.6-3.1,1.7v10h-3.3V15.3h3.1L87,17c0.8-1.3,1.9-1.9,3.3-1.9
			c0.5,0,0.9,0.1,1.2,0.2L91.5,18.4z"/>
		<path class="st1" d="M98.4,11.8v3.6h2.6v2.4h-2.6V26c0,0.6,0.1,1,0.3,1.2s0.6,0.4,1.2,0.4c0.4,0,0.8,0,1.2-0.1V30
			c-0.8,0.2-1.5,0.3-2.2,0.3c-2.5,0-3.8-1.4-3.8-4.2v-8.3h-2.4v-2.4h2.4v-3.6H98.4z"/>
		<path class="st1" d="M112.2,30c-0.1-0.3-0.3-0.7-0.4-1.4c-1,1.1-2.3,1.6-3.9,1.6c-1.5,0-2.7-0.4-3.6-1.3c-0.9-0.8-1.4-1.9-1.4-3.1
			c0-1.6,0.6-2.8,1.7-3.6c1.2-0.8,2.8-1.3,5-1.3h2v-1c0-0.8-0.2-1.4-0.6-1.8c-0.4-0.5-1.1-0.7-1.9-0.7c-0.8,0-1.4,0.2-1.8,0.6
			c-0.5,0.4-0.7,0.9-0.7,1.4h-3.3c0-0.8,0.3-1.6,0.8-2.3c0.5-0.7,1.3-1.3,2.2-1.6c0.9-0.4,1.9-0.6,3.1-0.6c1.7,0,3.1,0.4,4.1,1.3
			c1,0.9,1.5,2.1,1.6,3.6v6.6c0,1.3,0.2,2.4,0.6,3.2V30H112.2z M108.6,27.7c0.7,0,1.3-0.2,1.8-0.5c0.6-0.3,1-0.7,1.3-1.3v-2.8H110
			c-1.2,0-2.1,0.2-2.8,0.6c-0.6,0.4-0.9,1-0.9,1.8c0,0.6,0.2,1.1,0.6,1.5C107.4,27.5,107.9,27.7,108.6,27.7z"/>
		<path class="st1" d="M122,30h-3.3V9.2h3.3V30z"/>
	</g>
</g>
</svg>
